<?xml version="1.0" encoding="UTF-8"?>
<svg width="100%" height="100%" viewBox="0 0 114 87" version="1.1" xmlns="http://www.w3.org/2000/svg" xmlns:xlink="http://www.w3.org/1999/xlink">
    <title>Group 12</title>
    <defs>
        <polygon id="path-1" points="0 0 105.962051 0 105.962051 62 0 62"></polygon>
    </defs>
    <g id="Page-1" stroke="none" stroke-width="1" fill="none" fill-rule="evenodd">
        <g id="Group-12" transform="translate(0.48, 0)">
            <g id="Group-3" transform="translate(3.8691, 0)">
                <mask id="mask-2" fill="white">
                    <use xlink:href="#path-1"></use>
                </mask>
                <g id="Clip-2"></g>
                <path d="M53.593711,53.5129874 C53.593711,52.5275933 52.9707521,51.743635 52.4473174,51.5225033 C52.2057437,51.421487 51.7437842,51.3615039 50.9590799,51.3615039 C48.7067292,51.3615039 47.6810479,51.3410619 46.9366308,51.2809295 L46.5348036,50.2548006 L45.4082553,50.4566841 L45.5896967,54.337979 L50.0338181,54.337979 C50.637081,54.337979 50.8185225,54.3576749 51.1202285,54.4989784 C51.7636294,54.8005352 51.8843417,55.5040684 51.8843417,57.5149946 C51.8843417,59.1443864 51.8237617,60.4114922 51.6830551,62 L53.7745556,61.5981729 C53.6339981,60.3310671 53.5335787,59.2249607 53.5335787,56.8114614 C53.5335787,55.021667 53.593711,54.2369626 53.593711,53.5129874 L53.593711,53.5129874 Z M32.7586838,54.5794035 C33.503101,54.4989784 34.3479376,54.4989784 35.1721831,54.5186743 L35.0719128,52.3665939 C35.0514708,52.0253467 34.8507811,51.6426187 34.5083402,51.4617741 C34.2872085,51.3410619 33.8647901,51.2809295 33.1005278,51.2809295 C32.4571269,51.2809295 31.5721523,51.381349 31.1497339,51.4617741 L31.491578,54.337979 L31.0296185,55.3436658 C29.9030702,54.4785364 29.2596693,53.9558478 28.2736783,53.030586 C27.4295877,52.2260365 26.9668822,51.5020613 26.4838839,50.4566841 C26.3630225,50.4566841 25.8000467,50.5166672 25.6799313,50.5365123 C25.4984898,51.5225033 25.3374904,52.6280128 25.2773581,53.9755437 L26.4237516,54.9609378 C25.9413502,55.8260673 25.8403338,56.2484856 25.8403338,56.5903296 C25.8403338,56.992306 25.9209082,57.696436 26.1418907,58.8223875 L24.8952269,59.1040992 L24.5329409,61.8390006 L28.1937009,61.7387303 L28.5956772,59.3853633 C28.0525466,58.7425593 27.6301282,57.9775509 27.4697257,57.5757237 C27.2684391,57.0933223 27.1477268,56.7513291 27.1477268,56.4094851 C27.1477268,56.1679113 27.3087262,55.8861996 27.4895708,55.6453719 C29.8826281,57.5354366 31.8737091,59.2249607 34.4482079,61.8390006 C34.6092073,61.8390006 34.7696099,61.8191554 34.9109134,61.7790175 C35.091758,60.7936234 35.3331825,59.3053858 35.3933148,58.3195441 C34.1869382,57.6561488 33.3619467,57.0325931 31.813726,55.8663544 L32.7586838,54.5794035 Z M64.8360669,54.5794035 C65.5798872,54.4989784 66.4247239,54.4989784 67.2489694,54.5186743 L67.1486991,52.3665939 C67.1282571,52.0253467 66.9275673,51.6426187 66.5857233,51.4617741 C66.3645916,51.3410619 65.9421732,51.2809295 65.1780601,51.2809295 C64.53451,51.2809295 63.6495354,51.381349 63.2271171,51.4617741 L63.5689611,54.337979 L63.1064048,55.3436658 C61.9798564,54.4785364 61.3364555,53.9558478 60.3510614,53.030586 C59.5062248,52.2260365 59.0436685,51.5020613 58.561267,50.4566841 C58.4404056,50.4566841 57.877579,50.5166672 57.7567175,50.5365123 C57.5758729,51.5225033 57.4148735,52.6280128 57.3541444,53.9755437 L58.5005379,54.9609378 C58.0181364,55.8260673 57.917717,56.2484856 57.917717,56.5903296 C57.917717,56.992306 57.9982913,57.696436 58.219423,58.8223875 L56.9720132,59.1040992 L56.610324,61.8390006 L60.2704871,61.7387303 L60.6730603,59.3853633 C60.1299297,58.7425593 59.7075114,57.9775509 59.5465119,57.5757237 C59.3452253,57.0933223 59.2245131,56.7513291 59.2245131,56.4094851 C59.2245131,56.1679113 59.3861094,55.8861996 59.5669539,55.6453719 C61.9600113,57.5354366 63.9510923,59.2249607 66.525591,61.8390006 C66.6859936,61.8390006 66.846993,61.8191554 66.9876997,61.7790175 C67.168395,60.7936234 67.4099688,59.3053858 67.4701011,58.3195441 C66.2635753,57.6561488 65.4393298,57.0325931 63.8903631,55.8663544 L64.8360669,54.5794035 Z M41.1448292,51.3615039 L39.4356091,51.3007747 L39.07392,50.2949386 L37.8667973,50.4962252 L38.0482387,54.3175369 L39.2950517,54.3576749 C39.5364762,54.3576749 39.8783203,54.3576749 40.1397392,54.4586912 C40.3608709,54.5385195 40.5415663,54.8811096 40.5415663,55.2624947 C40.5415663,56.1877565 39.8381823,57.2741669 38.9933456,58.2191246 L40.9040015,59.1245412 C41.3058286,58.400566 41.8489592,57.3143048 42.070091,56.389043 C42.3717971,55.1622244 42.5532385,53.0905691 42.2912227,52.3665939 C42.0502458,51.7033479 41.7084018,51.381349 41.1448292,51.3615039 L41.1448292,51.3615039 Z M94.1892919,0 L94.1892919,5.88640176 L100.075694,5.88640176 L100.075694,29.3603872 L94.1892919,32.7591314 L97.1324928,37.8563524 L105.962095,32.7604743 L105.962095,0 L94.1892919,0 Z M91.9658883,51.3615039 L90.256519,51.3007747 L89.8948298,50.2949386 L88.6878563,50.4962252 L88.8687009,54.3175369 L90.1159616,54.3576749 C90.3567893,54.3576749 90.6986333,54.3576749 90.960649,54.4586912 C91.1817808,54.5385195 91.3626254,54.8811096 91.3626254,55.2624947 C91.3626254,56.1877565 90.6584953,57.2741669 89.8136586,58.2191246 L91.7243145,59.1245412 C92.1268877,58.400566 92.6700183,57.3143048 92.8911501,56.389043 C93.1927069,55.1622244 93.3735515,53.0905691 93.1128787,52.3665939 C92.8713049,51.7033479 92.5287148,51.381349 91.9658883,51.3615039 L91.9658883,51.3615039 Z M85.6704972,53.3922752 C85.6704972,52.4676102 84.9868092,51.743635 84.4436786,51.5225033 C84.2027017,51.421487 83.941432,51.3615039 83.6192839,51.3615039 L79.7981214,51.3615039 C78.6320319,51.3615039 77.9680398,51.3206199 77.5054835,51.2203496 L77.1035072,50.3359718 L75.9571137,50.5569543 L76.1782454,54.0158309 L77.9277527,54.2976918 C77.5456215,55.1020921 77.3041969,55.9066416 77.3041969,56.4696174 C77.3041969,56.8319034 77.4447544,57.696436 77.6863281,58.9234039 L76.1379583,59.1642315 L75.5749825,61.8390006 L79.375703,61.7387303 L79.7578342,59.5866499 C79.3151231,58.1992795 78.8530144,56.8114614 78.8530144,56.3086179 C78.8530144,55.8459124 79.1144333,54.6995189 79.3355651,54.2976918 L82.332333,54.2976918 C82.9355959,54.2976918 83.2371528,54.337979 83.4384393,54.4382492 C83.92099,54.679823 84.0819894,55.5846427 84.0819894,57.696436 C84.0819894,59.2454027 84.0819894,60.4517793 83.9815699,61.9598621 L86.0327833,61.4568694 C85.8717838,60.1905097 85.6909392,59.0836572 85.6909392,56.670904 C85.6909392,54.8811096 85.6704972,54.1571344 85.6704972,53.3922752 L85.6704972,53.3922752 Z M104.51504,58.8428295 C104.47535,57.7162812 104.414621,55.8459124 104.334196,54.2976918 C104.274063,53.2114306 103.952065,52.2260365 103.288819,51.7634802 C102.705401,51.3615039 101.981426,51.3615039 101.217163,51.3615039 L99.5877714,51.3615039 C98.9039341,51.3615039 98.4215327,51.3410619 97.9991144,51.2406424 L97.6777123,50.3755129 L96.4508937,50.5365123 L96.6112963,54.4178072 C97.8381149,54.3781169 99.0247956,54.3781169 100.171189,54.3781169 C101.136589,54.3781169 101.538565,54.3979621 101.900851,54.5794035 C102.383253,54.8203804 102.624826,55.4842233 102.785826,56.6510588 C102.8664,57.2134377 102.946974,58.1188543 102.986516,58.7221173 L96.490584,58.8025424 L96.0080334,61.8191554 C97.7576898,61.7591723 99.2860653,61.7387303 101.900851,61.7387303 L105.48044,61.7387303 L105.420457,59.003829 L104.51504,58.8428295 Z M58.8716274,35.308861 L64.7580292,35.308861 L64.7580292,0 L58.8716274,0 L58.8716274,35.308861 Z M76.5308327,35.308861 L82.4172344,35.308861 L82.4172344,0 L76.5308327,0 L76.5308327,35.308861 Z M23.5538137,35.308861 L29.4402154,35.308861 L29.4402154,0 L23.5538137,0 L23.5538137,35.308861 Z M41.213019,35.308861 L47.0994207,35.308861 L47.0994207,0 L41.213019,0 L41.213019,35.308861 Z M21.4561955,51.5826356 C21.0543684,51.401791 20.28936,51.3615039 18.9219839,51.3615039 L16.5890589,51.3615039 C16.0663703,51.3615039 15.62351,51.3410619 15.2419757,51.3007747 C15.1008214,50.7780861 15.0202471,49.7665799 15.0202471,49.1230299 C15.5033946,49.0828919 15.985796,49.0630468 16.5890589,49.0630468 L16.4485015,47.2125232 C16.4286563,46.9511043 16.2873529,46.6693926 15.965354,46.5288352 C15.62351,46.3881285 14.8599937,46.4079737 14.2561339,46.4079737 C13.9345827,46.4079737 13.7332961,46.4284157 13.4317393,46.4482608 L13.8138704,54.4178072 C14.5979779,54.3781169 15.5033946,54.3576749 16.9309029,54.3576749 L18.5801399,54.3576749 C19.1232705,54.3576749 19.6862463,54.3979621 19.9884,54.4989784 C20.4102215,54.659381 20.5309338,55.0619541 20.5309338,55.4037982 C20.5309338,56.0273539 19.947516,57.2535757 19.0230003,57.9380098 C18.2587379,58.5009855 16.7903455,58.9234039 16.0260832,59.0639613 L16.1870826,61.7387303 L17.1526315,61.7387303 C20.5112378,60.0492062 22.4620316,56.3487559 22.4620316,53.8349863 C22.4620316,52.5275933 21.9788841,51.8234633 21.4561955,51.5826356 L21.4561955,51.5826356 Z M2.95349649,56.1679113 L1.12356414,56.6907491 C1.14400614,57.0530351 1.14400614,57.5149946 1.14400614,57.9578549 C1.14400614,59.1040992 1.00344872,60.7131983 0.902432391,61.9598621 L3.03466765,61.4773114 C2.9740877,60.3310671 2.91395539,58.8428295 2.91395539,57.7565683 C2.91395539,57.2338797 2.91395539,56.6907491 2.95349649,56.1679113 L2.95349649,56.1679113 Z M10.6361088,54.1366924 L10.4758554,52.1857493 C10.4552642,51.9046345 10.1939945,51.5423484 9.89243761,51.4413321 C9.51030644,51.3206199 9.02715894,51.3615039 8.00162689,51.3615039 L4.68330778,51.3615039 C3.61748857,51.3615039 2.75295596,51.3007747 2.35038278,51.1806593 L1.94840644,50.2949386 L0.761874965,50.4158001 L0.963161555,54.3781169 C2.33053762,54.3175369 3.71775884,54.3175369 4.78432411,54.3175369 C5.80985616,54.3175369 6.97609484,54.3175369 7.96133973,54.3979621 C8.04191405,55.0619541 8.16262632,56.8319034 8.16262632,58.2996989 C8.16262632,59.4459432 8.10264321,60.8134685 8.06235605,61.9598621 L10.2942647,61.4568694 C10.0131499,59.8280744 9.83170845,58.0581252 9.75113413,56.1679113 C9.73128897,55.6453719 9.71159303,54.9609378 9.73128897,54.4178072 L10.6361088,54.1366924 Z M0,32.7604743 L8.82960264,37.8563524 L11.7728035,32.7591314 L5.88640176,29.3603872 L5.88640176,5.88640176 L11.7728035,5.88640176 L11.7728035,0 L0,0 L0,32.7604743 Z" id="Fill-1" fill="currentColor" mask="url(#mask-2)"></path>
            </g>
        </g>
    </g>
</svg>