<?xml version="1.0" encoding="UTF-8" standalone="no"?>
<!-- Created with Inkscape (http://www.inkscape.org/) -->

<svg
   xmlns:dc="http://purl.org/dc/elements/1.1/"
   xmlns:cc="http://creativecommons.org/ns#"
   xmlns:rdf="http://www.w3.org/1999/02/22-rdf-syntax-ns#"
   xmlns:svg="http://www.w3.org/2000/svg"
   xmlns="http://www.w3.org/2000/svg"
   xmlns:sodipodi="http://sodipodi.sourceforge.net/DTD/sodipodi-0.dtd"
   xmlns:inkscape="http://www.inkscape.org/namespaces/inkscape"
   version="1.1"
   id="svg2"
   xml:space="preserve"
   width="90"
   height="40"
   viewBox="0 0 90 40"
   sodipodi:docname="אתנה.svg"
   inkscape:version="0.92.5 (2060ec1f9f, 2020-04-08)"><metadata
     id="metadata8"><rdf:RDF><cc:Work
         rdf:about=""><dc:format>image/svg+xml</dc:format><dc:type
           rdf:resource="http://purl.org/dc/dcmitype/StillImage" /><dc:title></dc:title></cc:Work></rdf:RDF></metadata><defs
     id="defs6" /><sodipodi:namedview
     pagecolor="#ffffff"
     bordercolor="#666666"
     borderopacity="1"
     objecttolerance="10"
     gridtolerance="10"
     guidetolerance="10"
     inkscape:pageopacity="0"
     inkscape:pageshadow="2"
     inkscape:window-width="1366"
     inkscape:window-height="705"
     id="namedview4"
     showgrid="false"
     inkscape:zoom="5.6568543"
     inkscape:cx="30.99758"
     inkscape:cy="15.517617"
     inkscape:window-x="-8"
     inkscape:window-y="-8"
     inkscape:window-maximized="1"
     inkscape:current-layer="g10" /><g
     id="g10"
     inkscape:groupmode="layer"
     inkscape:label="Israeli-Triathlon-Association-10-15-9-1"
     transform="matrix(1.3333333,0,0,-1.3333333,0,40.000009)"><path
       inkscape:connector-curvature="0"
       id="path332"
       style="fill:#fcb514;fill-opacity:1;fill-rule:nonzero;stroke:none;stroke-width:1.63512409"
       d="m 24.565284,29.18789 c 0.0116,-0.0101 0.0214,-0.0214 0.0326,-0.0312 -0.0116,0.0101 -0.0214,0.0214 -0.0326,0.0312" /><path
       inkscape:connector-curvature="0"
       id="path336"
       style="fill:#fcb514;fill-opacity:1;fill-rule:nonzero;stroke:none;stroke-width:1.63512409"
       d="m 25.084444,27.25895 c -0.0116,-0.0343 -0.75216,-2.42653 -0.51507,-5.17517 0.0998,-1.02032 0.30742,-2.13384 0.70802,-3.17379 0.29594,1.03014 0.48071,2.11422 0.53304,3.21303 0.1913,3.19175 -0.5543,5.7213 -0.71129,6.21183 0.0998,-0.34011 0.10148,-0.71291 -0.0152,-1.0759" /><path
       inkscape:connector-curvature="0"
       id="path340"
       style="fill:#fcb514;fill-opacity:1;fill-rule:nonzero;stroke:none;stroke-width:1.63512409"
       d="m 24.130994,29.48059 c 0.007,-0.002 0.0135,-0.007 0.0197,-0.0101 -0.007,0.002 -0.0135,0.007 -0.0197,0.0101" /><path
       inkscape:connector-curvature="0"
       id="path344"
       style="fill:#fcb514;fill-opacity:1;fill-rule:nonzero;stroke:none;stroke-width:1.63512409"
       d="m 24.687914,29.06558 c 0.0135,-0.0151 0.0261,-0.0295 0.0394,-0.0458 -0.0135,0.0164 -0.0261,0.0312 -0.0394,0.0458" /><path
       inkscape:connector-curvature="0"
       id="path348"
       style="fill:#fcb514;fill-opacity:1;fill-rule:nonzero;stroke:none;stroke-width:1.63512409"
       d="m 25.071204,28.42004 c -0.002,0.008 -0.007,0.015 -0.0101,0.0231 0.0135,-0.0343 0.0261,-0.0669 0.036,-0.10317 -0.0135,0.0424 -0.0231,0.0703 -0.0261,0.0801" /><path
       inkscape:connector-curvature="0"
       id="path352"
       style="fill:#fcb514;fill-opacity:1;fill-rule:nonzero;stroke:none;stroke-width:1.63512409"
       d="m 21.388404,18.94564 c -0.56086,-1.38004 -1.35387,-2.42489 -2.09459,-2.96939 -0.58375,-0.42839 -1.19364,-0.69166 -1.73651,-0.8568 0.78323,1.3408 1.18546,2.93668 1.16257,4.6781 -0.0377,2.68977 -2.09132,6.41295 -5.84884,6.41295 -3.9373803,0 -5.7719803,-4.09435 -5.7719803,-6.86098 0,-1.47489 0.40553,-2.95958 1.13478,-4.2219 -3.23919,1.01214 -4.2366,4.2971 -4.49334,6.95582 -0.23707,2.75029 0.50363,5.14084 0.51507,5.17518 0.30905,0.96963 -0.22401,2.00793 -1.19363,2.32022 -0.97128,0.31232 -2.01122,-0.22073 -2.32349001,-1.192 -0.0411,-0.1242 -0.98438,-3.10183 -0.67696,-6.63205 l 9e-4,-0.015 c 0.23054,-2.42326 0.88624,-4.50476 1.94742001,-6.18569 1.40784,-2.2352 3.44521,-3.6463 6.05486,-4.19572 0.72763,-0.15206 1.45037,-0.22728 2.1583903,-0.22728 0.94835,0 1.86729,0.13409 2.72901,0.39732 0.80611,-0.224 1.72996,-0.35972 2.78788,-0.36299 0.51997,-0.0197 3.21138,-0.0214 5.73929,1.83298 0.6753,0.49545 1.29501,1.12825 1.83951,1.86077 -0.16678,0.22238 -0.32702,0.45291 -0.47909,0.69492 -0.62788,0.99417 -1.11187,2.12896 -1.45198,3.39126 m -7.95489,-3.06096 c -0.16842,-0.13738 -0.34665,-0.26326 -0.53469,-0.37443 -1.97522,1.10533 -2.10604,3.28496 -2.10604,3.83927 0,0.90094 0.6181,3.16724 2.07824,3.16724 1.38823,0 2.14039,-1.80356 2.15511,-2.76993 0.0228,-1.64982 -0.52815,-2.98572 -1.59262,-3.86215" /><path
       inkscape:connector-curvature="0"
       id="path356"
       style="fill:#fcb514;fill-opacity:1;fill-rule:nonzero;stroke:none;stroke-width:1.63512409"
       d="m 24.431854,29.29779 c 0.008,-0.007 0.0163,-0.0116 0.0228,-0.018 -0.007,0.003 -0.0151,0.0116 -0.0228,0.018" /><path
       inkscape:connector-curvature="0"
       id="path360"
       style="fill:#fcb514;fill-opacity:1;fill-rule:nonzero;stroke:none;stroke-width:1.63512409"
       d="m 24.286984,29.39572 c 0.007,-0.002 0.0116,-0.008 0.018,-0.0116 -0.007,0.002 -0.0116,0.008 -0.018,0.0116" /><path
       inkscape:connector-curvature="0"
       id="path364"
       style="fill:#fcb514;fill-opacity:1;fill-rule:nonzero;stroke:none;stroke-width:1.63512409"
       d="m 24.799764,28.9307 c 0.0135,-0.018 0.0261,-0.036 0.0394,-0.0557 -0.0135,0.0197 -0.0261,0.0377 -0.0394,0.0557" /><path
       inkscape:connector-curvature="0"
       id="path368"
       style="fill:#fcb514;fill-opacity:1;fill-rule:nonzero;stroke:none;stroke-width:1.63512409"
       d="m 24.900824,28.78173 c 0.0116,-0.0197 0.023,-0.0377 0.0326,-0.0574 -0.0101,0.0197 -0.0214,0.0377 -0.0326,0.0574" /><path
       inkscape:connector-curvature="0"
       id="path372"
       style="fill:#fcb514;fill-opacity:1;fill-rule:nonzero;stroke:none;stroke-width:1.63512409"
       d="m 23.966184,29.55057 c 0.008,-0.002 0.0151,-0.006 0.0228,-0.008 -0.008,0.002 -0.0151,0.003 -0.0228,0.008" /><path
       inkscape:connector-curvature="0"
       id="path376"
       style="fill:#fcb514;fill-opacity:1;fill-rule:nonzero;stroke:none;stroke-width:1.63512409"
       d="m 23.799574,29.60338 c 0.006,-9e-4 0.0116,-0.002 0.0163,-0.003 -0.006,9e-4 -0.0116,0.002 -0.0163,0.003" /><path
       inkscape:connector-curvature="0"
       id="path380"
       style="fill:#fcb514;fill-opacity:1;fill-rule:nonzero;stroke:none;stroke-width:1.63512409"
       d="m 24.989124,28.6187 c 0.008,-0.0162 0.0163,-0.0343 0.0231,-0.0522 -0.007,0.0179 -0.0151,0.036 -0.0231,0.0522" /><path
       inkscape:connector-curvature="0"
       id="path384"
       style="fill:#ed3629;fill-opacity:1;fill-rule:nonzero;stroke:none;stroke-width:1.63512409"
       d="m 24.726834,29.02062 c 0.0245,-0.0295 0.049,-0.0588 0.0737,-0.09 -0.0245,0.0312 -0.0491,0.0604 -0.0737,0.09" /><path
       inkscape:connector-curvature="0"
       id="path388"
       style="fill:#ed3629;fill-opacity:1;fill-rule:nonzero;stroke:none;stroke-width:1.63512409"
       d="m 24.597664,29.15715 c 0.0309,-0.0295 0.0604,-0.0604 0.09,-0.0916 -0.0295,0.0312 -0.0587,0.0621 -0.09,0.0916" /><path
       inkscape:connector-curvature="0"
       id="path392"
       style="fill:#ed3629;fill-opacity:1;fill-rule:nonzero;stroke:none;stroke-width:1.63512409"
       d="m 44.623034,29.60469 c 0.0101,-8.9e-4 0.0181,-0.003 0.0278,-0.008 -0.0101,0.002 -0.018,0.007 -0.0278,0.008" /><path
       inkscape:connector-curvature="0"
       id="path396"
       style="fill:#ed3629;fill-opacity:1;fill-rule:nonzero;stroke:none;stroke-width:1.63512409"
       d="m 22.121914,22.3341 c 0.16678,2.73067 -0.53958,4.87268 -0.54613,4.89393 -0.32374,0.96473 0.19295,2.01284 1.15603,2.33823 0.3581,0.12266 0.72765,0.12754 1.06776,0.0377 -0.94348,0.25181 -1.92947,-0.27635 -2.23197,-1.21654 -0.0407,-0.12588 -0.98271,-3.10347 -0.67693,-6.63206 l 9.1e-4,-0.0163 c 0.0947,-0.98925 0.26162,-1.92128 0.49544,-2.7928 0.3957,0.97291 0.67367,2.11097 0.73253,3.36182 z" /><path
       inkscape:connector-curvature="0"
       id="path400"
       style="fill:#ed3629;fill-opacity:1;fill-rule:nonzero;stroke:none;stroke-width:1.63512409"
       d="m 25.097344,28.34073 c 0,-9e-4 9e-4,-0.002 9e-4,-0.003 0,9.1e-4 -9e-4,0.002 -9e-4,0.003" /><path
       inkscape:connector-curvature="0"
       id="path404"
       style="fill:#ed3629;fill-opacity:1;fill-rule:nonzero;stroke:none;stroke-width:1.63512409"
       d="m 24.933514,28.72467 c 0.0197,-0.0343 0.0377,-0.0703 0.0557,-0.10632 -0.0179,0.036 -0.036,0.072 -0.0557,0.10632" /><path
       inkscape:connector-curvature="0"
       id="path408"
       style="fill:#ed3629;fill-opacity:1;fill-rule:nonzero;stroke:none;stroke-width:1.63512409"
       d="m 25.012644,28.56672 c 0.0181,-0.0408 0.0343,-0.0817 0.0493,-0.12434 -0.0152,0.0424 -0.0312,0.0836 -0.0493,0.12434" /><path
       inkscape:connector-curvature="0"
       id="path412"
       style="fill:#ed3629;fill-opacity:1;fill-rule:nonzero;stroke:none;stroke-width:1.63512409"
       d="m 24.839004,28.87558 c 0.0214,-0.0309 0.0424,-0.0621 0.0621,-0.093 -0.0197,0.031 -0.0411,0.0621 -0.0621,0.093" /><path
       inkscape:connector-curvature="0"
       id="path416"
       style="fill:#ed3629;fill-opacity:1;fill-rule:nonzero;stroke:none;stroke-width:1.63512409"
       d="m 44.460674,29.64 c 9.1e-4,0 0.002,0 0.007,-9e-4 -0.002,9e-4 -0.006,9e-4 -0.007,9e-4" /><path
       inkscape:connector-curvature="0"
       id="path420"
       style="fill:#ed3629;fill-opacity:1;fill-rule:nonzero;stroke:none;stroke-width:1.63512409"
       d="m 45.720684,28.79613 c 0.0198,-0.0312 0.036,-0.0621 0.054,-0.0933 -0.018,0.0309 -0.036,0.0621 -0.054,0.0933" /><path
       inkscape:connector-curvature="0"
       id="path424"
       style="fill:#ed3629;fill-opacity:1;fill-rule:nonzero;stroke:none;stroke-width:1.63512409"
       d="m 23.988414,29.54223 c 0.0493,-0.0181 0.0964,-0.0394 0.1422,-0.0621 -0.0458,0.023 -0.093,0.0424 -0.1422,0.0621" /><path
       inkscape:connector-curvature="0"
       id="path428"
       style="fill:#ed3629;fill-opacity:1;fill-rule:nonzero;stroke:none;stroke-width:1.63512409"
       d="m 45.507634,29.07539 c 0.0231,-0.0244 0.0441,-0.0489 0.0655,-0.0752 -0.0214,0.0261 -0.0424,0.0506 -0.0655,0.0752" /><path
       inkscape:connector-curvature="0"
       id="path432"
       style="fill:#ed3629;fill-opacity:1;fill-rule:nonzero;stroke:none;stroke-width:1.63512409"
       d="m 44.788024,29.55303 c 0.0135,-0.003 0.0244,-0.0101 0.0377,-0.0152 -0.0135,0.006 -0.0245,0.0101 -0.0377,0.0152" /><path
       inkscape:connector-curvature="0"
       id="path436"
       style="fill:#ed3629;fill-opacity:1;fill-rule:nonzero;stroke:none;stroke-width:1.63512409"
       d="m 45.619804,28.94231 c 0.0229,-0.0295 0.0424,-0.0587 0.0621,-0.0883 -0.0197,0.0295 -0.0408,0.0587 -0.0621,0.0883" /><path
       inkscape:connector-curvature="0"
       id="path440"
       style="fill:#ed3629;fill-opacity:1;fill-rule:nonzero;stroke:none;stroke-width:1.63512409"
       d="m 42.216964,18.94418 c -0.55925,-1.38006 -1.3539,-2.42491 -2.093,-2.96776 -0.58373,-0.4284 -1.19524,-0.69166 -1.73649,-0.85681 0.78159,1.3408 1.18547,2.93668 1.16094,4.67809 -0.0377,2.68979 -2.09133,6.41297 -5.84884,6.41297 -3.93738,0 -5.77197,-4.09437 -5.77197,-6.86099 0,-1.47488 0.4055,-2.95957 1.13639,-4.2219 -1.99647,0.62463 -3.14106,2.11096 -3.78531,3.78204 -0.43329,-1.51248 -1.10696,-2.90562 -1.95887,-4.05018 1.37678,-1.83296 3.24737,-3.01191 5.57413,-3.50082 0.72763,-0.15206 1.452,-0.22728 2.16002,-0.22728 0.94672,0 1.86566,0.1341 2.72902,0.39734 0.8061,-0.22401 1.72996,-0.35973 2.78623,-0.363 0.52161,-0.0197 3.21302,-0.0214 5.7393,1.83299 0.67694,0.49545 1.29501,1.12657 1.83951,1.86077 -0.16678,0.22237 -0.32703,0.45128 -0.48073,0.69329 -0.62626,0.99579 -1.11022,2.13055 -1.45033,3.39125 m -7.9549,-3.05932 c -0.16678,-0.1374 -0.34665,-0.26326 -0.53469,-0.37446 -1.97523,1.10535 -2.10604,3.28497 -2.10604,3.83928 0,0.90096 0.61809,3.16724 2.07824,3.16724 1.38986,0 2.14203,-1.80353 2.15511,-2.76991 0.0228,-1.64982 -0.52815,-2.98573 -1.59262,-3.86215" /><path
       inkscape:connector-curvature="0"
       id="path444"
       style="fill:#ed3629;fill-opacity:1;fill-rule:nonzero;stroke:none;stroke-width:1.63512409"
       d="m 23.891464,29.57884 c -0.0244,0.008 -0.0506,0.0135 -0.0752,0.0197 0.0506,-0.0135 0.10149,-0.0295 0.15045,-0.0475 -0.0261,0.008 -0.0491,0.0197 -0.0754,0.0278" /><path
       inkscape:connector-curvature="0"
       id="path448"
       style="fill:#ed3629;fill-opacity:1;fill-rule:nonzero;stroke:none;stroke-width:1.63512409"
       d="m 45.912654,27.25895 c -0.0116,-0.0343 -0.75215,-2.42653 -0.51506,-5.17517 0.0998,-1.02195 0.30741,-2.13384 0.70964,-3.17541 0.29432,1.03012 0.47909,2.1142 0.5314,3.21465 0.2093,3.48771 -0.69984,6.18404 -0.73742,6.29685 -0.003,0.0152 -0.0135,0.0295 -0.018,0.0441 0.13904,-0.37444 0.16022,-0.79631 0.0295,-1.20508" /><path
       inkscape:connector-curvature="0"
       id="path452"
       style="fill:#ed3629;fill-opacity:1;fill-rule:nonzero;stroke:none;stroke-width:1.63512409"
       d="m 45.809324,28.63571 c 0.0151,-0.0295 0.0278,-0.0587 0.0407,-0.09 -0.0135,0.031 -0.0261,0.0604 -0.0407,0.09" /><path
       inkscape:connector-curvature="0"
       id="path456"
       style="fill:#ed3629;fill-opacity:1;fill-rule:nonzero;stroke:none;stroke-width:1.63512409"
       d="m 45.107354,29.40062 c 0.0152,-0.008 0.0278,-0.0163 0.0408,-0.0261 -0.0135,0.0101 -0.0261,0.0181 -0.0408,0.0261" /><path
       inkscape:connector-curvature="0"
       id="path460"
       style="fill:#ed3629;fill-opacity:1;fill-rule:nonzero;stroke:none;stroke-width:1.63512409"
       d="m 44.952014,29.48419 c 0.0135,-0.007 0.0261,-0.0135 0.0377,-0.0197 -0.0116,0.007 -0.0245,0.0135 -0.0377,0.0197" /><path
       inkscape:connector-curvature="0"
       id="path464"
       style="fill:#ed3629;fill-opacity:1;fill-rule:nonzero;stroke:none;stroke-width:1.63512409"
       d="m 24.149974,29.4711 c 0.0475,-0.0229 0.0933,-0.0475 0.1374,-0.0754 -0.0441,0.0261 -0.09,0.0523 -0.1374,0.0754" /><path
       inkscape:connector-curvature="0"
       id="path468"
       style="fill:#ed3629;fill-opacity:1;fill-rule:nonzero;stroke:none;stroke-width:1.63512409"
       d="m 24.455244,29.27963 c 0.0377,-0.0295 0.075,-0.0587 0.10958,-0.0917 -0.0343,0.031 -0.072,0.0621 -0.10958,0.0917" /><path
       inkscape:connector-curvature="0"
       id="path472"
       style="fill:#ed3629;fill-opacity:1;fill-rule:nonzero;stroke:none;stroke-width:1.63512409"
       d="m 45.251894,29.30415 c 0.0164,-0.0135 0.0326,-0.0261 0.0492,-0.0377 -0.0162,0.0116 -0.0326,0.0244 -0.0492,0.0377" /><path
       inkscape:connector-curvature="0"
       id="path476"
       style="fill:#ed3629;fill-opacity:1;fill-rule:nonzero;stroke:none;stroke-width:1.63512409"
       d="m 45.385324,29.19576 c 0.0197,-0.0181 0.0394,-0.0377 0.0587,-0.0557 -0.0197,0.0179 -0.0394,0.0377 -0.0587,0.0557" /><path
       inkscape:connector-curvature="0"
       id="path480"
       style="fill:#ed3629;fill-opacity:1;fill-rule:nonzero;stroke:none;stroke-width:1.63512409"
       d="m 24.305304,29.38411 c 0.0424,-0.0261 0.0848,-0.0557 0.12587,-0.0866 -0.0408,0.0312 -0.0818,0.0587 -0.12587,0.0866" /><path
       inkscape:connector-curvature="0"
       id="path484"
       style="fill:#f27021;fill-opacity:1;fill-rule:nonzero;stroke:none;stroke-width:1.63512409"
       d="m 24.570024,22.08327 c -0.23709,2.75029 0.50362,5.14085 0.51506,5.17518 0.1161,0.36463 0.11276,0.73581 0.0152,1.07754 -9e-4,9e-4 -9e-4,0.002 -9e-4,0.003 -0.0116,0.0343 -0.0245,0.0686 -0.036,0.10149 -0.0151,0.0424 -0.0309,0.0836 -0.0492,0.12432 -0.008,0.0181 -0.0163,0.0343 -0.0245,0.0523 -0.0163,0.036 -0.036,0.072 -0.0557,0.10632 -0.0101,0.018 -0.0214,0.0377 -0.0326,0.0573 -0.0196,0.0309 -0.0394,0.0621 -0.0621,0.093 -0.0116,0.018 -0.0245,0.0377 -0.0394,0.0557 -0.0231,0.0312 -0.0475,0.0604 -0.072,0.09 -0.0135,0.0151 -0.0261,0.0295 -0.0394,0.0441 -0.0295,0.0326 -0.0587,0.0621 -0.09,0.0916 -0.0116,0.0116 -0.0214,0.0214 -0.0326,0.0312 -0.036,0.0326 -0.072,0.0621 -0.10958,0.0916 -0.008,0.007 -0.0162,0.0135 -0.0244,0.018 -0.0408,0.0312 -0.0818,0.0604 -0.12585,0.0866 -0.007,0.002 -0.0116,0.008 -0.0179,0.0116 -0.0441,0.0278 -0.09,0.0523 -0.13742,0.0754 -0.007,0.002 -0.0135,0.007 -0.0197,0.0101 -0.0458,0.0231 -0.0933,0.0424 -0.14219,0.0621 -0.007,9.1e-4 -0.0151,0.003 -0.0214,0.008 -0.0492,0.0179 -0.0998,0.0343 -0.15045,0.0475 -0.006,8.9e-4 -0.0116,0.002 -0.0163,0.003 -0.34011,0.09 -0.70965,0.0849 -1.06773,-0.036 -0.96474,-0.32701 -1.48143,-1.37512 -1.15765,-2.33985 0.008,-0.0214 0.7129,-2.16328 0.54776,-4.89393 l -9.1e-4,-0.0245 c -0.0587,-1.25249 -0.33847,-2.39055 -0.73253,-3.36343 0.34009,-1.26233 0.8241,-2.39709 1.45197,-3.39124 0.15209,-0.242 0.31233,-0.47258 0.4791,-0.69496 0.85354,1.14624 1.52557,2.53937 1.9589,4.05021 -0.40227,1.0416 -0.60991,2.15347 -0.70801,3.17377" /><path
       inkscape:connector-curvature="0"
       id="path488"
       style="fill:#8fcced;fill-opacity:1;fill-rule:nonzero;stroke:none;stroke-width:1.63512409"
       d="m 45.444514,29.13933 c 0.0214,-0.0214 0.0424,-0.0424 0.0638,-0.0638 -0.0214,0.0214 -0.0424,0.0424 -0.0638,0.0638" /><path
       inkscape:connector-curvature="0"
       id="path492"
       style="fill:#8fcced;fill-opacity:1;fill-rule:nonzero;stroke:none;stroke-width:1.63512409"
       d="m 45.682604,28.85368 c 0.0135,-0.0197 0.0261,-0.0377 0.0377,-0.0574 -0.0116,0.0197 -0.0245,0.0377 -0.0377,0.0574" /><path
       inkscape:connector-curvature="0"
       id="path496"
       style="fill:#8fcced;fill-opacity:1;fill-rule:nonzero;stroke:none;stroke-width:1.63512409"
       d="m 45.774164,28.70292 c 0.0116,-0.0231 0.0244,-0.0441 0.036,-0.0669 -0.0116,0.0228 -0.0245,0.0441 -0.036,0.0669" /><path
       inkscape:connector-curvature="0"
       id="path500"
       style="fill:#8fcced;fill-opacity:1;fill-rule:nonzero;stroke:none;stroke-width:1.63512409"
       d="m 45.572884,29.00018 c 0.0163,-0.0197 0.0312,-0.0377 0.0475,-0.057 -0.0163,0.0197 -0.0312,0.0377 -0.0475,0.057" /><path
       inkscape:connector-curvature="0"
       id="path504"
       style="fill:#8fcced;fill-opacity:1;fill-rule:nonzero;stroke:none;stroke-width:1.63512409"
       d="m 45.301114,29.26589 c 0.0295,-0.0229 0.0574,-0.0458 0.0834,-0.0703 -0.0261,0.0245 -0.054,0.0475 -0.0834,0.0703" /><path
       inkscape:connector-curvature="0"
       id="path508"
       style="fill:#8fcced;fill-opacity:1;fill-rule:nonzero;stroke:none;stroke-width:1.63512409"
       d="m 66.728924,28.42004 c -0.33031,0.96309 -1.37514,1.47325 -2.33985,1.14622 -0.96311,-0.32703 -1.47979,-1.3735 -1.15605,-2.33823 0.007,-0.0214 0.71128,-2.16326 0.54613,-4.89393 l -9e-4,-0.0261 c -0.14053,-3.02988 -1.56316,-5.40572 -2.82547,-6.33119 -0.58374,-0.42841 -1.19529,-0.6933 -1.7365,-0.8568 0.78159,1.3408 1.18545,2.93668 1.16092,4.67808 -0.0377,2.68815 -2.08968,6.41295 -5.84884,6.41295 -3.93738,0 -5.77198,-4.09434 -5.77198,-6.86261 0,-1.47488 0.40552,-2.95958 1.1364,-4.22025 -1.99647,0.62298 -3.13944,2.1093 -3.78531,3.77876 -0.4333,-1.51085 -1.10534,-2.90234 -1.95886,-4.04856 1.37676,-1.83296 3.24734,-3.01026 5.57412,-3.49916 0.72927,-0.15371 1.45199,-0.22892 2.16001,-0.22892 0.94672,0 1.86567,0.13575 2.72902,0.39896 0.80611,-0.22401 1.72996,-0.35972 2.78625,-0.36298 0.52159,-0.0198 3.21303,-0.0214 5.73929,1.83133 2.45267,1.80028 4.15321,5.3812 4.33145,9.12562 0.20929,3.4861 -0.69984,6.18405 -0.7391,6.29687 M 55.090734,15.88522 c -0.16677,-0.13739 -0.34665,-0.26324 -0.53467,-0.37442 -1.97525,1.10535 -2.10607,3.28497 -2.10607,3.83763 0,0.90259 0.61809,3.16888 2.07825,3.16888 1.38986,0 2.14202,-1.80354 2.1551,-2.7699 0.0228,-1.65148 -0.52815,-2.98574 -1.59261,-3.86219" /><path
       inkscape:connector-curvature="0"
       id="path512"
       style="fill:#8fcced;fill-opacity:1;fill-rule:nonzero;stroke:none;stroke-width:1.63512409"
       d="m 42.951104,22.3341 c 0.16515,2.73067 -0.53957,4.87268 -0.54612,4.89393 -0.32375,0.96473 0.19296,2.01284 1.15603,2.33823 0.30086,0.10147 0.60827,0.12266 0.89932,0.0737 -0.8895,0.15206 -1.78066,-0.3679 -2.06516,-1.2525 -0.0408,-0.12588 -0.98271,-3.10348 -0.67694,-6.63205 l 9e-4,-0.0163 c 0.0947,-0.98924 0.26161,-1.9229 0.49708,-2.79442 0.39405,0.97289 0.67367,2.11094 0.73253,3.36345 z" /><path
       inkscape:connector-curvature="0"
       id="path516"
       style="fill:#8fcced;fill-opacity:1;fill-rule:nonzero;stroke:none;stroke-width:1.63512409"
       d="m 45.850364,28.54595 c 0.0116,-0.0278 0.0231,-0.054 0.0326,-0.0835 -0.0101,0.0295 -0.0214,0.0557 -0.0326,0.0835" /><path
       inkscape:connector-curvature="0"
       id="path520"
       style="fill:#8fcced;fill-opacity:1;fill-rule:nonzero;stroke:none;stroke-width:1.63512409"
       d="m 44.719504,29.57884 c -0.023,0.008 -0.0458,0.0116 -0.0686,0.0179 0.0458,-0.0135 0.0916,-0.0278 0.1374,-0.0441 -0.0228,0.008 -0.0458,0.018 -0.0686,0.0261" /><path
       inkscape:connector-curvature="0"
       id="path524"
       style="fill:#8fcced;fill-opacity:1;fill-rule:nonzero;stroke:none;stroke-width:1.63512409"
       d="m 44.825624,29.5388 c 0.0424,-0.0163 0.0851,-0.0343 0.12587,-0.054 -0.0407,0.0197 -0.0836,0.0377 -0.12587,0.054" /><path
       inkscape:connector-curvature="0"
       id="path528"
       style="fill:#8fcced;fill-opacity:1;fill-rule:nonzero;stroke:none;stroke-width:1.63512409"
       d="m 44.466714,29.63902 c 0.0523,-0.0101 0.10463,-0.0214 0.15697,-0.0343 -0.0523,0.0135 -0.10462,0.0245 -0.15697,0.0343" /><path
       inkscape:connector-curvature="0"
       id="path532"
       style="fill:#8fcced;fill-opacity:1;fill-rule:nonzero;stroke:none;stroke-width:1.63512409"
       d="m 44.990104,29.46504 c 0.0394,-0.0197 0.0784,-0.0407 0.11779,-0.0638 -0.0377,0.0229 -0.0767,0.0441 -0.11779,0.0638" /><path
       inkscape:connector-curvature="0"
       id="path536"
       style="fill:#8fcced;fill-opacity:1;fill-rule:nonzero;stroke:none;stroke-width:1.63512409"
       d="m 45.148574,29.37462 c 0.036,-0.023 0.0703,-0.0458 0.10304,-0.0703 -0.0326,0.0244 -0.0672,0.0475 -0.10304,0.0703" /><path
       inkscape:connector-curvature="0"
       id="path540"
       style="fill:#ab8fc2;fill-opacity:1;fill-rule:nonzero;stroke:none;stroke-width:1.63512409"
       d="m 45.398234,22.08327 c -0.23708,2.75029 0.50362,5.14085 0.51507,5.17518 0.13079,0.41041 0.1096,0.83065 -0.0295,1.20508 -0.0116,0.0278 -0.0214,0.0557 -0.0343,0.0818 -0.0116,0.0312 -0.0261,0.0604 -0.0407,0.09 -0.0101,0.0231 -0.0231,0.0458 -0.0343,0.0669 -0.0164,0.0326 -0.0343,0.0638 -0.0541,0.0933 -0.0116,0.0197 -0.0244,0.0394 -0.0377,0.0587 -0.0198,0.0295 -0.0408,0.0588 -0.0638,0.0883 -0.0152,0.0197 -0.0312,0.0394 -0.0458,0.0574 -0.0214,0.0261 -0.0425,0.0507 -0.0655,0.0752 -0.0214,0.0229 -0.0424,0.0441 -0.0638,0.0638 -0.0197,0.0197 -0.0394,0.0394 -0.0587,0.0574 -0.0278,0.0244 -0.0557,0.0475 -0.0853,0.0703 -0.0151,0.0135 -0.0309,0.0261 -0.0491,0.0377 -0.0326,0.0245 -0.0669,0.0475 -0.10295,0.0703 -0.0135,0.0101 -0.0261,0.0179 -0.0411,0.0261 -0.0377,0.0231 -0.0767,0.0441 -0.11775,0.0655 -0.0116,0.006 -0.0244,0.0116 -0.0377,0.0179 -0.0408,0.0197 -0.0836,0.0377 -0.12586,0.0557 -0.0135,0.006 -0.0244,0.008 -0.0377,0.0135 -0.0458,0.0163 -0.0916,0.0326 -0.13737,0.0441 -0.0101,0.002 -0.0197,0.006 -0.0278,0.008 -0.0522,0.0135 -0.10315,0.0244 -0.15697,0.0343 -9e-4,0 -0.002,0 -0.006,0 -0.29269,0.0489 -0.60007,0.0295 -0.90094,-0.072 -0.96309,-0.32699 -1.47979,-1.37513 -1.15605,-2.33985 0.007,-0.0214 0.71291,-2.16326 0.54776,-4.89393 l -9e-4,-0.0245 c -0.0587,-1.25251 -0.33847,-2.3922 -0.73415,-3.36509 0.34009,-1.26068 0.82409,-2.39545 1.45199,-3.38961 0.15205,-0.24199 0.31393,-0.47256 0.48072,-0.69493 0.85188,1.1446 1.52556,2.53772 1.95725,4.04857 -0.40062,1.04157 -0.60992,2.15346 -0.70802,3.1754" /><path
       inkscape:connector-curvature="0"
       id="path544"
       style="fill:#fcb514;fill-opacity:1;fill-rule:nonzero;stroke:none;stroke-width:1.63512409"
       d="m 30.172624,8.0612801 v -4.36416 c 0,-0.55757 0.0587,-0.55267 0.10631,-0.68348 0.0261,-0.0686 0.018,-0.0998 8.9e-4,-0.11778 -0.008,-0.0101 -0.0214,-0.0135 -0.0309,-0.0163 l -0.007,0.0135 -0.0703,0.17659 -1.88692,4.71733 c -0.007,0.0164 -0.0116,0.0295 -0.018,0.0441 -0.0295,0.0638 -0.072,0.11777 -0.12112,0.16022 -0.072,0.0655 -0.16515,0.10632 -0.26652,0.10632 -0.12254,0 -0.23382,-0.0587 -0.31068,-0.15044 -9e-4,-9e-4 -0.002,-0.006 -0.006,-0.007 -0.0179,-0.0229 -0.0343,-0.0475 -0.0475,-0.0736 -0.0475,-0.0801 -0.075,-0.17331 -0.075,-0.27633 v -5.5071 h 0.54613 v 4.60615 c 0,0.27632 -0.0214,0.34501 -0.0441,0.39732 -0.0101,0.018 -0.018,0.0343 -0.0278,0.0574 -0.0311,0.0866 0.0164,0.0866 0.0343,0.09 0,0 0.0197,-0.0135 0.0377,-0.0424 v 0.008 l 0.007,-0.0197 c 0.007,-0.0135 0.0116,-0.0278 0.018,-0.0424 l 0.0101,-0.0278 1.89838,-4.74184 c 0.006,-0.0135 0.0101,-0.0244 0.0151,-0.0377 0.0214,-0.0475 0.049,-0.0917 0.0866,-0.12915 0.0424,-0.0407 0.0931,-0.0737 0.15043,-0.0947 0.0424,-0.015 0.09,-0.0228 0.1374,-0.0228 0.085,0 0.16351,0.0261 0.22891,0.0686 0.0214,0.015 0.0408,0.0326 0.0604,0.0491 0.072,0.075 0.11943,0.17496 0.11943,0.28939 v 5.57089 z" /><path
       inkscape:connector-curvature="0"
       id="path548"
       style="fill:#fcb514;fill-opacity:1;fill-rule:nonzero;stroke:none;stroke-width:1.63512409"
       d="m 24.638544,7.5053501 h 0.42838 1.63187 v 0.55593 h -2.06025 -0.0574 c -0.26981,0 -0.49056,-0.21912 -0.49056,-0.48889 v -4.09272 c 0,-0.45131 0.2142,-0.85356 0.54777,-1.10699 0.23544,-0.18148 0.53142,-0.28943 0.85191,-0.28943 h 1.20835 v 0.54123 h -0.10315 -1.09717 c -0.47419,0 -0.86008,0.38588 -0.86008,0.86171 v 1.10207 0.29105 h 0.8519 1.12496 v 0.54451 h -1.97686 v 1.6613 z" /><path
       inkscape:connector-curvature="0"
       id="path552"
       style="fill:#fcb514;fill-opacity:1;fill-rule:nonzero;stroke:none;stroke-width:1.63512409"
       d="m 22.867714,8.0612801 v -2.63746 h -2.04391 v 2.63746 h -0.54777 v -5.97803 h 0.54777 v 2.79606 h 2.04391 v -2.79606 h 0.54612 v 5.97803 z" /><path
       inkscape:connector-curvature="0"
       id="path556"
       style="fill:#fcb514;fill-opacity:1;fill-rule:nonzero;stroke:none;stroke-width:1.63512409"
       d="m 18.314704,8.0612801 h -0.54614 -1.53374 v -0.55593 h 1.53374 v -5.4221 h 0.54614 v 5.4221 h 1.53375 v 0.55593 z" /><path
       inkscape:connector-curvature="0"
       id="path568"
       style="fill:#fcb514;fill-opacity:1;fill-rule:nonzero;stroke:none;stroke-width:1.63512409"
       d="m 16.396864,4.3317301 -0.1422,0.54775 -0.71784,2.78788 -0.0343,0.13247 -9e-4,0.002 c -0.0441,0.10957 -0.121,0.19949 -0.21585,0.25836 -0.0326,0.0214 -0.0672,0.0377 -0.10461,0.0491 -0.0475,0.0151 -0.0981,0.0228 -0.14881,0.0228 -0.0523,0 -0.10317,-0.008 -0.15042,-0.0244 -0.036,-0.0116 -0.0686,-0.0278 -0.10147,-0.0475 -0.10632,-0.0638 -0.18969,-0.16842 -0.23056,-0.29597 l -0.0163,-0.0686 -0.002,-0.008 -0.72438,-2.80913 -0.14054,-0.54777 -0.58048,-2.24831 h 0.56902 l 0.56903,2.24831 h 1.61713 l 0.56738,-2.24831 h 0.57067 z m -2.03573,0.54775 0.54941,2.17309 0.0686,0.25999 c 0,0.008 9e-4,0.015 0.006,0.0229 0.008,0.0179 0.0261,0.0295 0.0475,0.0295 0.0197,0 0.0377,-0.0101 0.0441,-0.0261 0.007,-0.007 0.0101,-0.0163 0.0101,-0.0261 v -0.002 l 0.0655,-0.25999 0.54777,-2.1698 z" /><path
       inkscape:connector-curvature="0"
       id="path572"
       style="fill:#fcb514;fill-opacity:1;fill-rule:nonzero;stroke:none;stroke-width:1.63512409"
       d="m 34.194374,4.3317301 -0.1422,0.54775 -0.71784,2.78788 -0.0343,0.13247 -8.9e-4,0.002 c -0.0441,0.10957 -0.12112,0.19949 -0.21585,0.25836 -0.0326,0.0214 -0.0669,0.0377 -0.10461,0.0491 -0.0475,0.0151 -0.0981,0.0228 -0.14879,0.0228 -0.0523,0 -0.10317,-0.008 -0.15042,-0.0244 -0.036,-0.0116 -0.0686,-0.0278 -0.10146,-0.0475 -0.10632,-0.0638 -0.18968,-0.16842 -0.23058,-0.29597 l -0.0162,-0.0686 -0.002,-0.008 -0.72435,-2.80913 -0.14056,-0.54777 -0.58048,-2.24831 h 0.56903 l 0.56902,2.24831 h 1.61715 l 0.569,-2.24831 h 0.56905 z m -2.03573,0.54775 0.54939,2.17309 0.0686,0.25999 c 0,0.008 9e-4,0.015 0.006,0.0229 0.008,0.0179 0.0261,0.0295 0.0475,0.0295 0.0198,0 0.0377,-0.0101 0.0441,-0.0261 0.007,-0.007 0.008,-0.0163 0.008,-0.0261 v -0.002 l 0.0672,-0.25999 0.54776,-2.1698 z" /><path
       inkscape:connector-curvature="0"
       id="path576"
       style="fill:#ed3629;fill-opacity:1;fill-rule:nonzero;stroke:none;stroke-width:1.63512409"
       d="m 45.896294,1.8100501 c 0.1864,0 0.33685,-0.14882 0.33685,-0.33523 0,-0.1831 -0.15045,-0.33355 -0.33685,-0.33355 -0.18477,0 -0.33519,0.15045 -0.33519,0.33355 0,0.18641 0.15042,0.33523 0.33519,0.33523" /><path
       inkscape:connector-curvature="0"
       id="path580"
       style="fill:#ed3629;fill-opacity:1;fill-rule:nonzero;stroke:none;stroke-width:1.63512409"
       d="m 45.166714,1.0006601 c 0.18477,0 0.3352,-0.14882002 0.3352,-0.33522002 0,-0.18314 -0.15043,-0.33356 -0.3352,-0.33356 -0.18642,0 -0.33521,0.15042 -0.33521,0.33356 0,0.1864 0.14879,0.33522002 0.33521,0.33522002" /><path
       inkscape:connector-curvature="0"
       id="path584"
       style="fill:#ed3629;fill-opacity:1;fill-rule:nonzero;stroke:none;stroke-width:1.63512409"
       d="m 44.483064,1.8100501 c 0.18477,0 0.3352,-0.14882 0.3352,-0.33523 0,-0.1831 -0.15043,-0.33355 -0.3352,-0.33355 -0.18641,0 -0.33521,0.15045 -0.33521,0.33355 0,0.18641 0.1488,0.33523 0.33521,0.33523" /><path
       inkscape:connector-curvature="0"
       id="path588"
       style="fill:#ed3629;fill-opacity:1;fill-rule:nonzero;stroke:none;stroke-width:1.63512409"
       d="m 47.350244,7.4840701 c 0,0.31884 -0.25833,0.57721 -0.57881,0.57721 h -0.13742 -2.41998 -0.13905 c -0.3172,0 -0.57719,-0.25837 -0.57719,-0.57721 v -0.0883 -2.6865 -1.40785 c 0,-0.31886 -0.25835,-0.57719 -0.57721,-0.57719 h -0.34011 v -0.62299 c 0.0754,-0.0116 0.15044,-0.018 0.22894,-0.018 0.25016,0 0.48564,0.0655 0.68838,0.17822 0.42676,0.24038 0.71619,0.69821 0.71619,1.22472 v 3.43866 0.47092 h 0.43003 1.55827 0.43167 v -0.47092 -4.8416 h 0.71619 v 5.31252 z" /><path
       inkscape:connector-curvature="0"
       id="path592"
       style="fill:#ed3629;fill-opacity:1;fill-rule:nonzero;stroke:none;stroke-width:1.63512409"
       d="m 42.007484,7.3954601 c -0.12111,0.26 -0.33683,0.46764 -0.60336,0.57719 -0.1374,0.0574 -0.28779,0.0884 -0.44477,0.0884 h -0.59681 v -0.16679 -0.4987 h 0.46275 c 0.32049,0 0.57883,-0.25834 0.57883,-0.57883 v -0.98435 -2.61292 -0.44477 h -0.4284 -0.94674 v -0.69165 h 1.37514 0.13576 c 0.1962,0 0.36952,0.0964 0.47417,0.24526 0.0655,0.0947 0.10462,0.20768 0.10462,0.33193 v 0.11445 1.93271 2.19596 c 0,0.17496 -0.0394,0.34336 -0.11115,0.49219" /><path
       inkscape:connector-curvature="0"
       id="path596"
       style="fill:#ed3629;fill-opacity:1;fill-rule:nonzero;stroke:none;stroke-width:1.63512409"
       d="m 39.241174,7.4840701 c 0,0.31884 -0.25834,0.57721 -0.57883,0.57721 h -0.13904 -3.1705 v -0.6655 h 2.74046 0.43004 v -0.47092 -4.84161 h 0.71782 v 5.31253 z" /><path
       d="m 35.352854,2.0817901 h 0.88623 v 2.66852 h -0.88623 z"
       style="fill:#ed3629;fill-opacity:1;fill-rule:nonzero;stroke:none;stroke-width:1.63512409"
       id="path598"
       inkscape:connector-curvature="0" /><path
       inkscape:connector-curvature="0"
       id="path610"
       style="fill:#ed3629;fill-opacity:1;fill-rule:nonzero;stroke:none;stroke-width:1.63512409"
       d="m 52.064324,2.8937901 -0.61317,0.9353 0.23216,0.28941 0.21095,0.26327 c 0.10791,0.18313 0.17006,0.40714 0.17006,0.64749 v 2.36603 0.66548 h -0.71619 v -0.66548 -1.25415 -1.15931 c 0,-0.23382 -0.10631,-0.44147 -0.27142,-0.57719 l -1.95727,2.99065 -0.33356,0.50851 -0.0163,0.0164 c -0.0377,0.0557 -0.0849,0.10633 -0.1422,0.14056 -0.072,0.0441 -0.15534,0.0703 -0.24526,0.0703 -0.0883,0 -0.17333,-0.0261 -0.24362,-0.0703 -0.0591,-0.0343 -0.1096,-0.0835 -0.14716,-0.13905 -0.0506,-0.0767 -0.0818,-0.16515 -0.0818,-0.26488 v -5.57414 h 0.71783 v 4.66502 c 0,0.0801 -0.0686,0.16022 -0.0933,0.20439 -0.0261,0.0441 0.0214,0.0933 0.0933,-0.002 l 1.23289,-1.88531 0.28124,-0.42841 0.23709,-0.36462 h 9.1e-4 l 0.12254,-0.18805 0.84535,-1.29502 0.46111,-0.70474 h 0.25509 0.52977 z" /></g></svg>