<?xml version="1.0" encoding="utf-8"?>
<!-- Generator: Adobe Illustrator 18.0.0, SVG Export Plug-In . SVG Version: 6.00 Build 0)  -->
<!DOCTYPE svg PUBLIC "-//W3C//DTD SVG 1.1//EN" "http://www.w3.org/Graphics/SVG/1.1/DTD/svg11.dtd">
<svg version="1.1" id="Layer_1" xmlns="http://www.w3.org/2000/svg" xmlns:xlink="http://www.w3.org/1999/xlink" x="0px" y="0px"
	 viewBox="0 0 680.6 723.4" enable-background="new 0 0 680.6 723.4" xml:space="preserve">
<path fill="#1722C2" d="M257.5,650.5h-31.3v43.4c0,6.9,7.9,14.8,14.8,14.8h16.5c6.9,0,14.8-7.9,14.8-14.8v-28.6
	C272.3,658.3,264.5,650.5,257.5,650.5z M259.2,692c0,1.6-2.9,4.6-4.5,4.6h-10.9c-1.6,0-4.5-3-4.5-4.6v-29.4h15.4
	c1.6,0,4.5,2.9,4.5,4.5V692z M209.9,665.4v28.6c0,6.9-7.9,14.8-14.9,14.8h-30.7v-12h28c1.5,0,4.5-3,4.5-4.6v-25.1
	c0-1.6-3-4.6-4.5-4.6H177v11.6h7.7v11.4h-20.3v-35h30.7C202.1,650.5,209.9,658.4,209.9,665.4z M290.5,676.7h12.9v32.1h-12.9V676.7z
	 M125,650.5h20.8v58.2h-13.1v-46H125V650.5z M48,665.4v28.6c0,6.9-7.8,14.8-14.8,14.8H0v-58.2h12.8v46.1h18.3c1.6,0,4.5-3,4.5-4.6
	v-25.2c0-1.3-2-3.2-3.2-3.2h-0.7l-3.4,14.1H17.7l6.3-27.3h9.3C40.2,650.5,48,658.4,48,665.4z M66.3,650.5h40.9v58.2H94.2v-46H66.3
	V650.5z M363.2,180h263.3l-13.2,44H491.1c47.3,36.9,77.6,93.7,77.6,157.5c0,111.3-92.3,201.5-206.3,201.5H54.9l13.3-44h46h248.3
	c89.5,0,162.3-70.7,162.3-157.5c0-47.9-22.1-92.7-60.7-122.8l-12.6-8.7c-30.5-19-56.9-22.4-78.3-24.3l-23.8-1l13.2-44.7H363.2z
	 M584,650.5h13v43.4c0,6.9-7.8,14.8-14.8,14.8h-35.5v-12.1H560l-1.8-2.5c-1.5-2-2.1-3.8-2.1-6.3v-37.4h13.1v46.1h10.3
	c1.6,0,4.5-3,4.5-4.6V650.5z M488.2,650.5h40.9v58.2h-13.1v-46h-27.9V650.5z M680.6,0l-13.2,44H263.3l-94.4,316.3h197.9
	c12.2,0,22.2,9.9,22.2,22.2s-9.9,22.2-22.2,22.2H108L230.6,0H680.6z M421.6,650.5H434v27.2c0,3.7-1,5.8-4,8.1l-4.4,3.3l6.9,11.4v23
	h-13v-20.9l-32.9-52h15.1l17.7,28.7l0.7-0.6c1.4-1.3,1.5-2.3,1.5-3.7V650.5z M289.3,650.5h46.3v58.2h-13.1v-46h-33.3V650.5z
	 M450.3,650.5H471v58.2H458v-46h-7.7V650.5z M296.1,89.8h357.5l-12.9,43H328.3l-39.5,136.7h78c61.8,0,111.8,50.1,111.8,111.8
	s-50.1,111.8-111.8,111.8h-282l11.5-44h269.8c37.4,0,67.7-30.3,67.7-67.7s-30.3-67.7-67.7-67.7H229.5L296.1,89.8z"/>
</svg>
