<?xml version="1.0" encoding="UTF-8" standalone="no"?>
<!-- Created with Inkscape (http://www.inkscape.org/) -->

<svg
   xmlns:dc="http://purl.org/dc/elements/1.1/"
   xmlns:cc="http://creativecommons.org/ns#"
   xmlns:rdf="http://www.w3.org/1999/02/22-rdf-syntax-ns#"
   xmlns:svg="http://www.w3.org/2000/svg"
   xmlns="http://www.w3.org/2000/svg"
   xmlns:xlink="http://www.w3.org/1999/xlink"
   xmlns:sodipodi="http://sodipodi.sourceforge.net/DTD/sodipodi-0.dtd"
   xmlns:inkscape="http://www.inkscape.org/namespaces/inkscape"
   width="80.381172mm"
   height="68.564926mm"
   viewBox="0 0 80.381172 68.564926"
   version="1.1"
   id="svg8"
   inkscape:version="0.92.3 (2405546, 2018-03-11)"
   sodipodi:docname="WingateInstitue.svg">
  <defs
     id="defs2">
    <clipPath
       clipPathUnits="userSpaceOnUse"
       id="clipPath158">
      <path
         d="m 464.29756,782.36214 h 99.68126 v -51.64309 h -99.68126 z"
         id="path156"
         inkscape:connector-curvature="0" />
    </clipPath>
    <radialGradient
       inkscape:collect="always"
       xlink:href="#radialGradient166"
       id="radialGradient5764"
       gradientUnits="userSpaceOnUse"
       gradientTransform="matrix(39.39566,0,0,-39.395645,514.01094,756.55984)"
       cx="0"
       cy="0"
       fx="0"
       fy="0"
       r="1"
       spreadMethod="pad" />
    <radialGradient
       fx="0"
       fy="0"
       cx="0"
       cy="0"
       r="1"
       gradientUnits="userSpaceOnUse"
       gradientTransform="matrix(39.39566,0,0,-39.395645,514.01094,756.55984)"
       spreadMethod="pad"
       id="radialGradient166">
      <stop
         style="stop-opacity:1;stop-color:#a6d71c"
         offset="0"
         id="stop160" />
      <stop
         style="stop-opacity:1;stop-color:#37983c"
         offset="0.56528154"
         id="stop162" />
      <stop
         style="stop-opacity:1;stop-color:#37983c"
         offset="1"
         id="stop164" />
    </radialGradient>
  </defs>
  <sodipodi:namedview
     id="base"
     pagecolor="#ffffff"
     bordercolor="#666666"
     borderopacity="1.0"
     inkscape:pageopacity="0.0"
     inkscape:pageshadow="2"
     inkscape:zoom="0.49497475"
     inkscape:cx="-392.45691"
     inkscape:cy="257.20953"
     inkscape:document-units="mm"
     inkscape:current-layer="layer1"
     showgrid="false"
     fit-margin-top="0"
     fit-margin-left="0"
     fit-margin-right="0"
     fit-margin-bottom="0"
     inkscape:window-width="1920"
     inkscape:window-height="1001"
     inkscape:window-x="-9"
     inkscape:window-y="-9"
     inkscape:window-maximized="1" />
  <metadata
     id="metadata5">
    <rdf:RDF>
      <cc:Work
         rdf:about="">
        <dc:format>image/svg+xml</dc:format>
        <dc:type
           rdf:resource="http://purl.org/dc/dcmitype/StillImage" />
        <dc:title></dc:title>
      </cc:Work>
    </rdf:RDF>
  </metadata>
  <g
     inkscape:label="Layer 1"
     inkscape:groupmode="layer"
     id="layer1"
     transform="translate(-57.487081,-164.26353)">
    <g
       transform="matrix(0.47630966,0,0,-0.47630966,-531.26333,546.04825)"
       id="g5893"
       style="stroke-width:0.74064791">
      <path
         d="m 1238.9463,669.3839 h 2.295 l 1.5422,-9.42768 q 0.019,-0.14688 0.1561,-0.14688 0.1285,0 0.1561,0.14688 l 1.4411,7.81203 q 0.2938,1.61565 1.6708,1.61565 1.4045,0 1.6891,-1.61565 l 1.4228,-7.81203 q 0.019,-0.1377 0.1469,-0.1377 0.1469,0 0.1653,0.15605 l 1.5605,9.40933 h 2.2766 l -1.9369,-9.47359 q -0.2296,-1.08321 -0.5691,-1.57893 -0.4315,-0.59669 -1.1842,-0.59669 -0.8813,0 -1.3311,0.35802 -0.5233,0.40391 -0.6977,1.42288 l -1.3862,7.73859 q -0.027,0.1377 -0.156,0.1377 -0.1286,0 -0.1469,-0.1377 l -1.3953,-7.73859 q -0.1744,-1.01897 -0.6976,-1.42288 -0.4499,-0.35802 -1.3219,-0.35802 -0.7529,0 -1.1843,0.59669 -0.3579,0.50489 -0.5783,1.57893 z"
         style="font-style:normal;font-variant:normal;font-weight:bold;font-stretch:normal;font-size:medium;line-height:100%;font-family:ETypographBold;-inkscape-font-specification:'ETypographBold Bold';letter-spacing:-0.01px;word-spacing:0px;fill:#7b7979;fill-opacity:1;stroke:none;stroke-width:0.55548602px;stroke-linecap:butt;stroke-linejoin:miter;stroke-opacity:1"
         id="path5811"
         inkscape:connector-curvature="0" />
      <path
         d="m 1255.1828,657.91829 v 11.46561 h 2.24 v -11.46561 z"
         style="font-style:normal;font-variant:normal;font-weight:bold;font-stretch:normal;font-size:medium;line-height:100%;font-family:ETypographBold;-inkscape-font-specification:'ETypographBold Bold';letter-spacing:-0.01px;word-spacing:0px;fill:#7b7979;fill-opacity:1;stroke:none;stroke-width:0.55548602px;stroke-linecap:butt;stroke-linejoin:miter;stroke-opacity:1"
         id="path5813"
         inkscape:connector-curvature="0" />
      <path
         d="m 1259.6876,657.91829 v 9.70308 q 0,0.82619 0.459,1.29436 0.459,0.46817 1.2761,0.46817 0.8996,0 1.3953,-0.25704 0.6058,-0.30293 0.9363,-1.08321 l 3.4149,-8.17923 q 0.092,-0.2295 0.202,-0.2295 0.1469,0 0.1469,0.2295 v 9.51948 h 2.2215 v -9.72144 q 0,-0.80782 -0.5324,-1.27599 -0.5234,-0.46818 -1.3404,-0.46818 -0.8721,0 -1.331,0.25704 -0.5233,0.30293 -0.863,1.08322 l -3.4057,8.17922 q -0.101,0.22951 -0.2111,0.22951 -0.1377,0 -0.1377,-0.22951 v -9.51948 z"
         style="font-style:normal;font-variant:normal;font-weight:bold;font-stretch:normal;font-size:medium;line-height:100%;font-family:ETypographBold;-inkscape-font-specification:'ETypographBold Bold';letter-spacing:-0.01px;word-spacing:0px;fill:#7b7979;fill-opacity:1;stroke:none;stroke-width:0.55548602px;stroke-linecap:butt;stroke-linejoin:miter;stroke-opacity:1"
         id="path5815"
         inkscape:connector-curvature="0" />
      <path
         d="m 1271.5821,663.42619 q 0,2.47856 1.5056,4.28698 1.5697,1.89104 3.8554,1.89104 2.3592,0 4.2595,-1.25763 -0.073,-0.38555 -0.7619,-1.276 -1.3036,1.00061 -3.0018,1.00061 -1.579,0 -2.5337,-1.25765 -0.9639,-1.28517 -0.9639,-3.42407 0,-1.93695 0.9823,-3.08442 0.9914,-1.14748 2.5795,-1.14748 0.8354,0 1.6432,0.31211 v 3.1854 q 0,0.21114 -0.2387,0.21114 h -1.9185 q -0.046,0.27539 -0.046,0.80783 0,0.38554 0.019,0.6793 h 3.1304 q 1.2576,0 1.2576,-1.35862 v -4.14928 q -1.7808,-1.19337 -4.1951,-1.19337 -2.5244,0 -4.0851,1.67072 -1.4871,1.61565 -1.4871,4.10339 z"
         style="font-style:normal;font-variant:normal;font-weight:bold;font-stretch:normal;font-size:medium;line-height:100%;font-family:ETypographBold;-inkscape-font-specification:'ETypographBold Bold';letter-spacing:-0.01px;word-spacing:0px;fill:#7b7979;fill-opacity:1;stroke:none;stroke-width:0.55548602px;stroke-linecap:butt;stroke-linejoin:miter;stroke-opacity:1"
         id="path5817"
         inkscape:connector-curvature="0" />
      <path
         d="m 1282.5219,657.91829 2.9926,9.94176 q 0.4866,1.60647 2.0195,1.60647 1.5422,0 2.0288,-1.60647 l 2.9927,-9.94176 h -2.3684 l -0.9272,3.75455 h -3.4516 l -0.9181,-3.75455 z m 3.6627,5.23251 h 2.7081 l -1.0741,4.28697 q -0.055,0.22032 -0.2846,0.22032 -0.2294,0 -0.2844,-0.22032 z"
         style="font-style:normal;font-variant:normal;font-weight:bold;font-stretch:normal;font-size:medium;line-height:100%;font-family:ETypographBold;-inkscape-font-specification:'ETypographBold Bold';letter-spacing:-0.01px;word-spacing:0px;fill:#7b7979;fill-opacity:1;stroke:none;stroke-width:0.55548602px;stroke-linecap:butt;stroke-linejoin:miter;stroke-opacity:1"
         id="path5819"
         inkscape:connector-curvature="0" />
      <path
         d="m 1291.6165,668.6587 q 0,0.44063 0.019,0.73438 h 8.5282 q 0.027,-0.29375 0.027,-0.73438 0,-0.52326 -0.046,-0.76193 h -2.9926 v -9.97848 h -2.3133 v 9.97848 h -3.1946 q -0.028,0.23867 -0.028,0.76193 z"
         style="font-style:normal;font-variant:normal;font-weight:bold;font-stretch:normal;font-size:medium;line-height:100%;font-family:ETypographBold;-inkscape-font-specification:'ETypographBold Bold';letter-spacing:-0.01px;word-spacing:0px;fill:#7b7979;fill-opacity:1;stroke:none;stroke-width:0.55548602px;stroke-linecap:butt;stroke-linejoin:miter;stroke-opacity:1"
         id="path5821"
         inkscape:connector-curvature="0" />
      <path
         d="m 1301.5373,659.29527 v 8.71166 q 0,1.37697 1.2578,1.37697 h 5.416 q 0.019,-0.30294 0.019,-0.68848 0,-0.55998 -0.055,-0.79865 h -4.1951 q -0.2112,0 -0.2112,-0.23868 v -3.14868 h 3.1579 q 0.036,-0.24785 0.036,-0.78029 0,-0.40391 -0.019,-0.68848 h -3.1762 v -3.41489 q 0,-0.22032 0.2112,-0.22032 h 4.1951 q 0.055,-0.24786 0.055,-0.79865 0,-0.38556 -0.019,-0.68849 h -5.4161 q -1.2577,0 -1.2577,1.37698 z"
         style="font-style:normal;font-variant:normal;font-weight:bold;font-stretch:normal;font-size:medium;line-height:100%;font-family:ETypographBold;-inkscape-font-specification:'ETypographBold Bold';letter-spacing:-0.01px;word-spacing:0px;fill:#7b7979;fill-opacity:1;stroke:none;stroke-width:0.55548602px;stroke-linecap:butt;stroke-linejoin:miter;stroke-opacity:1"
         id="path5823"
         inkscape:connector-curvature="0" />
      <path
         d="m 1314.8822,657.91829 v 11.46561 h 2.2399 v -11.46561 z"
         style="font-style:normal;font-variant:normal;font-weight:bold;font-stretch:normal;font-size:medium;line-height:100%;font-family:ETypographBold;-inkscape-font-specification:'ETypographBold Bold';letter-spacing:-0.01px;word-spacing:0px;fill:#7b7979;fill-opacity:1;stroke:none;stroke-width:0.55548602px;stroke-linecap:butt;stroke-linejoin:miter;stroke-opacity:1"
         id="path5825"
         inkscape:connector-curvature="0" />
      <path
         d="m 1319.387,657.91829 v 9.70308 q 0,0.82619 0.4589,1.29436 0.459,0.46817 1.2761,0.46817 0.8996,0 1.3954,-0.25704 0.6058,-0.30293 0.9362,-1.08321 l 3.415,-8.17923 q 0.092,-0.2295 0.2019,-0.2295 0.1469,0 0.1469,0.2295 v 9.51948 h 2.2215 v -9.72144 q 0,-0.80782 -0.5324,-1.27599 -0.5233,-0.46818 -1.3403,-0.46818 -0.8721,0 -1.3311,0.25704 -0.5232,0.30293 -0.8629,1.08322 l -3.4057,8.17922 q -0.101,0.22951 -0.2111,0.22951 -0.1378,0 -0.1378,-0.22951 v -9.51948 z"
         style="font-style:normal;font-variant:normal;font-weight:bold;font-stretch:normal;font-size:medium;line-height:100%;font-family:ETypographBold;-inkscape-font-specification:'ETypographBold Bold';letter-spacing:-0.01px;word-spacing:0px;fill:#7b7979;fill-opacity:1;stroke:none;stroke-width:0.55548602px;stroke-linecap:butt;stroke-linejoin:miter;stroke-opacity:1"
         id="path5827"
         inkscape:connector-curvature="0" />
      <path
         d="m 1330.5653,658.89136 q 0.1652,0.65176 0.7527,1.23009 1.4597,-1.01896 2.5612,-1.01896 1.0833,0 1.7259,0.46817 0.6517,0.46817 0.6517,1.21174 0,1.66154 -2.3316,2.44184 -3.2038,1.06486 -3.2038,3.39653 0,1.43205 1.1107,2.2307 1.019,0.72521 2.5612,0.72521 1.175,0 1.992,-0.28458 0.5049,-0.17442 1.4871,-0.7711 -0.046,-0.2295 -0.2937,-0.6426 -0.2478,-0.40391 -0.459,-0.58751 -1.1199,0.79865 -2.3224,0.79865 -1.7076,0 -1.7076,-1.50549 0,-1.29435 2.1665,-2.05628 3.4425,-1.22092 3.4425,-3.74537 0,-1.48713 -1.1292,-2.34086 -1.1291,-0.84455 -3.0568,-0.84455 -2.396,0 -3.9474,1.29437 z"
         style="font-style:normal;font-variant:normal;font-weight:bold;font-stretch:normal;font-size:medium;line-height:100%;font-family:ETypographBold;-inkscape-font-specification:'ETypographBold Bold';letter-spacing:-0.01px;word-spacing:0px;fill:#7b7979;fill-opacity:1;stroke:none;stroke-width:0.55548602px;stroke-linecap:butt;stroke-linejoin:miter;stroke-opacity:1"
         id="path5829"
         inkscape:connector-curvature="0" />
      <path
         d="m 1339.2324,668.6587 q 0,0.44063 0.019,0.73438 h 8.5282 q 0.027,-0.29375 0.027,-0.73438 0,-0.52326 -0.046,-0.76193 h -2.9926 v -9.97848 h -2.3133 v 9.97848 h -3.1946 q -0.028,0.23867 -0.028,0.76193 z"
         style="font-style:normal;font-variant:normal;font-weight:bold;font-stretch:normal;font-size:medium;line-height:100%;font-family:ETypographBold;-inkscape-font-specification:'ETypographBold Bold';letter-spacing:-0.01px;word-spacing:0px;fill:#7b7979;fill-opacity:1;stroke:none;stroke-width:0.55548602px;stroke-linecap:butt;stroke-linejoin:miter;stroke-opacity:1"
         id="path5831"
         inkscape:connector-curvature="0" />
      <path
         d="m 1348.3728,657.91829 v 11.46561 h 2.2399 v -11.46561 z"
         style="font-style:normal;font-variant:normal;font-weight:bold;font-stretch:normal;font-size:medium;line-height:100%;font-family:ETypographBold;-inkscape-font-specification:'ETypographBold Bold';letter-spacing:-0.01px;word-spacing:0px;fill:#7b7979;fill-opacity:1;stroke:none;stroke-width:0.55548602px;stroke-linecap:butt;stroke-linejoin:miter;stroke-opacity:1"
         id="path5833"
         inkscape:connector-curvature="0" />
      <path
         d="m 1352.5354,668.6587 q 0,0.44063 0.019,0.73438 h 8.528 q 0.027,-0.29375 0.027,-0.73438 0,-0.52326 -0.046,-0.76193 h -2.9926 v -9.97848 h -2.3133 v 9.97848 h -3.1946 q -0.027,0.23867 -0.027,0.76193 z"
         style="font-style:normal;font-variant:normal;font-weight:bold;font-stretch:normal;font-size:medium;line-height:100%;font-family:ETypographBold;-inkscape-font-specification:'ETypographBold Bold';letter-spacing:-0.01px;word-spacing:0px;fill:#7b7979;fill-opacity:1;stroke:none;stroke-width:0.55548602px;stroke-linecap:butt;stroke-linejoin:miter;stroke-opacity:1"
         id="path5835"
         inkscape:connector-curvature="0" />
      <path
         d="m 1361.4921,662.99473 v 6.38917 h 2.24 v -6.02197 q 0,-1.68909 0.6334,-2.80902 0.7986,-1.39534 2.3959,-1.39534 1.5973,0 2.3776,1.39534 0.615,1.11993 0.615,2.80902 v 6.02197 h 2.3133 v -5.93935 q 0,-2.54282 -1.3219,-4.12175 -1.432,-1.70744 -3.984,-1.70744 -2.552,0 -3.9932,1.67072 -1.2761,1.48714 -1.2761,3.70865 z"
         style="font-style:normal;font-variant:normal;font-weight:bold;font-stretch:normal;font-size:medium;line-height:100%;font-family:ETypographBold;-inkscape-font-specification:'ETypographBold Bold';letter-spacing:-0.01px;word-spacing:0px;fill:#7b7979;fill-opacity:1;stroke:none;stroke-width:0.55548602px;stroke-linecap:butt;stroke-linejoin:miter;stroke-opacity:1"
         id="path5837"
         inkscape:connector-curvature="0" />
      <path
         d="m 1372.9146,668.6587 q 0,0.44063 0.019,0.73438 h 8.5281 q 0.027,-0.29375 0.027,-0.73438 0,-0.52326 -0.046,-0.76193 h -2.9927 v -9.97848 h -2.3133 v 9.97848 h -3.1946 q -0.027,0.23867 -0.027,0.76193 z"
         style="font-style:normal;font-variant:normal;font-weight:bold;font-stretch:normal;font-size:medium;line-height:100%;font-family:ETypographBold;-inkscape-font-specification:'ETypographBold Bold';letter-spacing:-0.01px;word-spacing:0px;fill:#7b7979;fill-opacity:1;stroke:none;stroke-width:0.55548602px;stroke-linecap:butt;stroke-linejoin:miter;stroke-opacity:1"
         id="path5839"
         inkscape:connector-curvature="0" />
      <path
         d="m 1382.9469,659.29527 v 8.71166 q 0,1.37697 1.2576,1.37697 h 5.4162 q 0.019,-0.30294 0.019,-0.68848 0,-0.55998 -0.055,-0.79865 h -4.1951 q -0.2112,0 -0.2112,-0.23868 v -3.14868 h 3.1579 q 0.036,-0.24785 0.036,-0.78029 0,-0.40391 -0.019,-0.68848 h -3.1763 v -3.41489 q 0,-0.22032 0.2111,-0.22032 h 4.1952 q 0.055,-0.24786 0.055,-0.79865 0,-0.38556 -0.019,-0.68849 h -5.4161 q -1.2576,0 -1.2576,1.37698 z"
         style="font-style:normal;font-variant:normal;font-weight:bold;font-stretch:normal;font-size:medium;line-height:100%;font-family:ETypographBold;-inkscape-font-specification:'ETypographBold Bold';letter-spacing:-0.01px;word-spacing:0px;fill:#7b7979;fill-opacity:1;stroke:none;stroke-width:0.55548602px;stroke-linecap:butt;stroke-linejoin:miter;stroke-opacity:1"
         id="path5841"
         inkscape:connector-curvature="0" />
      <g
         style="stroke-width:0.43343544"
         transform="matrix(1.7087849,0,0,1.7087849,442.11169,-535.34107)"
         id="g142">
        <g
           style="stroke-width:0.43343544"
           id="g144">
          <g
             style="stroke-width:0.43343544"
             id="g150">
            <g
               style="stroke-width:0.43343544"
               id="g152">
              <g
                 style="stroke-width:0.43343544"
                 clip-path="url(#clipPath158)"
                 id="g154">
                <path
                   inkscape:connector-curvature="0"
                   id="path168"
                   style="fill:url(#radialGradient5764);stroke:none;stroke-width:0.43343544"
                   d="m 556.552,780.65 c -0.143,-0.109 -0.069,-0.1 -0.187,-0.183 v 0 c -0.465,-0.324 -0.814,-0.655 -1.194,-1.009 v 0 c -2.655,-2.467 -5.082,-5.356 -7.155,-7.797 v 0 c -0.788,-0.934 -1.712,-1.983 -2.571,-3.03 v 0 c -0.517,-0.63 -1.404,-1.887 -1.645,-2.016 v 0 c -0.281,-0.153 -0.475,-0.591 -0.536,-0.71 v 0 c 10e-4,-0.004 -0.003,-0.012 -0.013,-0.025 v 0 c 0.003,0.006 0.008,0.014 0.013,0.025 v 0 c -10e-4,0.027 -0.148,-0.058 -0.2,-0.114 v 0 c -1.836,-2.113 -3.699,-4.29 -5.502,-6.052 v 0 c -0.749,-0.501 -1.154,-0.968 -1.924,-1.461 v 0 c -0.64,-0.424 -1.547,-1.119 -2.666,-0.834 v 0 c -1.149,0.298 -1.545,2.243 -1.645,4.038 v 0 c -0.228,3.96 0.496,7.065 1.009,10.357 v 0 c 0.239,1.545 0.907,3.965 0.092,4.769 v 0 c -0.788,0.775 -3.035,0.189 -4.219,-0.268 v 0 c -1.372,-0.536 -2.605,-1.213 -3.574,-1.747 v 0 c -2.72,-1.477 -4.368,-2.513 -6.423,-3.853 v 0 c -1.945,-1.266 -3.779,-2.442 -5.502,-3.663 v 0 c -0.321,-0.228 -2.02,-1.069 -2.207,-1.562 v 0 c -0.035,-0.109 -0.059,-0.07 -0.092,-0.033 v 0 c -0.022,0.026 -0.047,0.052 -0.082,0.033 v 0 c -0.432,-0.22 -0.831,-0.558 -1.2,-0.831 v 0 c -5.202,-3.695 -9.813,-7.009 -15.036,-10.719 v 0 c -3.673,-2.618 -7.703,-5.285 -11.742,-7.799 v 0 c -0.247,-0.163 -0.369,-0.382 -0.642,-0.367 v 0 c -0.728,-0.569 -2.087,-0.947 -2.568,-1.465 v 0 c -0.204,0.066 -0.519,-0.036 -0.859,-0.138 v 0 c -0.522,-0.156 -1.102,-0.314 -1.432,0.138 v 0 c 0.073,0.952 0.806,1.709 1.377,2.379 v 0 c 1.454,1.69 3.255,3.115 4.776,4.584 v 0 c 0.195,0.2 0.551,0.649 0.543,0.649 v 0 c 0.017,0.007 0.056,-0.01 0.099,-0.026 v 0 c 0.092,-0.034 0.203,-0.067 0.177,0.115 v 0 c 2.587,2.174 4.615,4.005 7.057,6.048 v 0 c 3.708,3.099 7.559,6.259 11.1,9.36 v 0 c 0.341,0.297 0.96,0.547 1.009,1.099 v 0 c 0.415,-0.197 0.611,0.358 0.82,0.554 v 0 c 1.494,1.309 2.979,2.573 4.221,4.03 v 0 c 0.49,0.575 1.16,1.252 1.01,2.111 v 0 c -0.681,0.575 -2.316,-0.232 -2.654,-0.37 v 0 c -0.289,-0.113 -0.63,-0.148 -0.918,-0.274 v 0 c -0.59,-0.263 -1.146,-0.661 -1.739,-1.013 v 0 c -3.435,-1.964 -6.793,-4.549 -9.45,-6.783 v 0 c -3.72,-3.106 -7.82,-6.622 -11.462,-10.265 v 0 c -4.428,-4.433 -8.729,-8.772 -12.84,-14.037 v 0 c -0.79,-1.011 -1.522,-2.109 -2.01,-2.752 v 0 c -0.763,-0.968 -1.467,-2.117 -2.118,-3.388 v 0 c -0.598,-1.162 -1.551,-2.985 -1.099,-4.223 v 0 c 0.314,-0.882 1.844,-1.359 3.025,-1.373 v 0 c 2.732,-0.04 5.383,1.373 7.607,2.566 v 0 c 1.078,0.57 2.063,1.241 3.031,1.835 v 0 c 0.855,0.521 1.686,0.97 2.38,1.466 v 0 c 0.185,0.121 0.62,0.236 0.55,0.554 v 0 c 0.38,-0.094 0.747,0.276 1.009,0.459 v 0 c 2.352,1.6 4.617,3.211 6.884,4.856 v 0 c 0.373,0.269 0.835,0.75 1.009,0.829 v 0 c 0.293,0.126 0.51,0.374 0.729,0.547 v 0 c 1.814,1.375 4.281,2.965 5.418,4.127 v 0 c 0.321,-0.03 0.723,0.374 1.102,0.643 v 0 c 0.373,0.278 0.834,0.554 0.907,0.821 v 0 c 0.477,-0.023 0.709,0.427 1.006,0.644 v 0 c 1.171,0.834 2.311,1.632 3.401,2.389 v 0 c 2.133,1.489 4.462,2.959 6.691,4.216 v 0 c 0.762,0.427 1.596,0.834 2.565,1.281 v 0 c 1.587,0.741 3.813,1.922 5.877,1.841 v 0 c 2.281,-0.107 3.557,-1.437 3.3,-3.944 v 0 c -0.239,-2.27 -1.672,-4.644 -2.662,-6.427 v 0 c -2.391,-4.282 -5.383,-8.542 -7.431,-12.47 v 0 c -0.565,-1.093 -2.084,-3.772 -1.283,-5.223 v 0 c 0.368,-0.67 1.681,-0.872 3.126,-0.745 v 0 c 2.219,0.226 4.667,1.213 6.692,2.118 v 0 c 1.972,0.884 3.948,1.937 5.591,2.757 v 0 c 3.932,1.948 7.457,4.203 11.006,6.69 v 0 c 6.11,4.283 11.737,9.061 16.505,14.484 v 0 c 0.704,0.815 1.555,2.15 1.834,2.304 v 0 c 0.107,0.052 0.107,0.091 0.18,0.179 v 0 c 2.808,3.32 5.738,7.859 7.435,12.468 v 0 c 0.863,2.354 1.746,5.84 0.64,8.257 v 0 c -0.42,0.903 -1.259,1.838 -2.111,2.021 v 0 c -0.197,0.041 -0.392,0.06 -0.586,0.06 v 0 c -1.382,0 -2.649,-0.969 -3.624,-1.712" />
              </g>
            </g>
          </g>
        </g>
      </g>
      <path
         d="m 1239.2968,689.40661 v 14.00261 h 5.6577 v -13.90989 q 0,-6.25944 4.3471,-6.25944 2.971,0 4.1069,1.7851 1.0266,1.59965 1.0266,5.6335 v 3.40793 q 0,4.89163 -2.6431,4.89163 -1.2453,0 -2.0971,-0.76504 -0.9612,1.34462 -1.3545,3.75567 1.9443,1.46054 5.1991,1.46054 2.5776,0 4.3908,-1.9242 2.3155,-2.3415 2.3155,-6.76948 v -3.82521 q 0,-11.75385 -10.9442,-11.75385 -4.8495,0 -7.2524,2.22558 -2.7524,2.43423 -2.7524,8.04455 z"
         style="font-style:normal;font-variant:normal;font-weight:normal;font-stretch:normal;font-size:medium;font-family:TipografBold;-inkscape-font-specification:TipografBold;writing-mode:lr-tb;opacity:1;fill:#231f20;fill-opacity:1;fill-rule:nonzero;stroke:none;stroke-width:0.29157823"
         id="path5776"
         inkscape:connector-curvature="0" />
      <path
         d="m 1263.2615,689.73117 v 13.67805 h 5.6577 v -11.26701 q -1.8569,-1.80827 -5.6577,-2.41104 z"
         style="font-style:normal;font-variant:normal;font-weight:normal;font-stretch:normal;font-size:medium;font-family:TipografBold;-inkscape-font-specification:TipografBold;writing-mode:lr-tb;opacity:1;fill:#231f20;fill-opacity:1;fill-rule:nonzero;stroke:none;stroke-width:0.29157823"
         id="path5778"
         inkscape:connector-curvature="0" />
      <path
         d="m 1271.2752,689.73117 v 13.67805 h 5.6578 v -11.26701 q -1.8568,-1.80827 -5.6578,-2.41104 z"
         style="font-style:normal;font-variant:normal;font-weight:normal;font-stretch:normal;font-size:medium;font-family:TipografBold;-inkscape-font-specification:TipografBold;writing-mode:lr-tb;opacity:1;fill:#231f20;fill-opacity:1;fill-rule:nonzero;stroke:none;stroke-width:0.29157823"
         id="path5780"
         inkscape:connector-curvature="0" />
      <path
         d="m 1277.8308,679.6697 q 0.2184,2.96743 0.5025,4.61344 0.3057,-0.11592 1.2888,-0.11592 1.1359,0 2.6432,0.76504 1.9004,0.97369 2.9708,2.68925 0.8957,1.39098 0.8957,3.7093 v 5.0771 q 0,2.99063 -2.7961,2.99063 h -3.5826 q -0.066,0.97368 -0.066,1.97056 0,1.02005 0.066,2.04012 h 5.5704 q 3.1893,0 4.653,-1.27508 1.7257,-1.5069 1.7257,-5.0771 v -7.46497 q 0,-5.79578 0.9392,-9.78328 h -5.33 q -0.568,1.83147 -0.8083,5.65669 0,0.25501 -0.1747,0.25501 -0.1529,-0.0464 -0.1966,-0.16228 -1.9224,-6.16671 -6.7719,-6.16671 -1.0266,0 -1.5291,0.2782 z"
         style="font-style:normal;font-variant:normal;font-weight:normal;font-stretch:normal;font-size:medium;font-family:TipografBold;-inkscape-font-specification:TipografBold;writing-mode:lr-tb;opacity:1;fill:#231f20;fill-opacity:1;fill-rule:nonzero;stroke:none;stroke-width:0.29157823"
         id="path5782"
         inkscape:connector-curvature="0" />
      <path
         d="m 1293.8593,681.68663 q 0,1.59963 0.087,2.10966 h 6.1601 v 12.56525 q 0,1.43735 -0.415,2.10967 -0.5025,0.92733 -2.119,0.92733 h -2.9053 q -0.087,1.18234 -0.087,2.17921 0,0.60276 0.087,1.83147 h 5.1116 q 5.9636,0 5.9636,-6.58401 v -15.8109 q 0,-1.20552 -0.9392,-1.20552 h -10.9005 q -0.044,0.62595 -0.044,1.87784 z"
         style="font-style:normal;font-variant:normal;font-weight:normal;font-stretch:normal;font-size:medium;font-family:TipografBold;-inkscape-font-specification:TipografBold;writing-mode:lr-tb;opacity:1;fill:#231f20;fill-opacity:1;fill-rule:nonzero;stroke:none;stroke-width:0.29157823"
         id="path5784"
         inkscape:connector-curvature="0" />
      <path
         d="m 1309.0007,689.73117 v 13.67805 h 5.6579 v -11.26701 q -1.8569,-1.80827 -5.6579,-2.41104 z"
         style="font-style:normal;font-variant:normal;font-weight:normal;font-stretch:normal;font-size:medium;font-family:TipografBold;-inkscape-font-specification:TipografBold;writing-mode:lr-tb;opacity:1;fill:#231f20;fill-opacity:1;fill-rule:nonzero;stroke:none;stroke-width:0.29157823"
         id="path5786"
         inkscape:connector-curvature="0" />
      <path
         d="m 1317.1367,679.80879 v 23.60043 h 5.6577 v -23.60043 z"
         style="font-style:normal;font-variant:normal;font-weight:normal;font-stretch:normal;font-size:medium;font-family:TipografBold;-inkscape-font-specification:TipografBold;writing-mode:lr-tb;opacity:1;fill:#231f20;fill-opacity:1;fill-rule:nonzero;stroke:none;stroke-width:0.29157823"
         id="path5788"
         inkscape:connector-curvature="0" />
      <path
         d="m 1334.416,672.99295 v 30.41627 h 5.4394 v -30.41627 z"
         style="font-style:normal;font-variant:normal;font-weight:normal;font-stretch:normal;font-size:medium;font-family:TipografBold;-inkscape-font-specification:TipografBold;writing-mode:lr-tb;opacity:1;fill:#231f20;fill-opacity:1;fill-rule:nonzero;stroke:none;stroke-width:0.29157823"
         id="path5791"
         inkscape:connector-curvature="0" />
      <path
         d="m 1342.8267,679.80879 v 23.60043 h 5.6579 v -23.60043 z"
         style="font-style:normal;font-variant:normal;font-weight:normal;font-stretch:normal;font-size:medium;font-family:TipografBold;-inkscape-font-specification:TipografBold;writing-mode:lr-tb;opacity:1;fill:#231f20;fill-opacity:1;fill-rule:nonzero;stroke:none;stroke-width:0.29157823"
         id="path5793"
         inkscape:connector-curvature="0" />
      <path
         d="m 1351.1131,701.48502 q 0,0.0927 0.1311,1.9242 h 6.7281 q 4.9369,0 7.5583,-3.15291 2.4465,-3.01381 2.4465,-8.60094 0,-5.26257 -2.6868,-8.55457 -2.665,-3.29201 -7.165,-3.29201 h -6.8375 q -0.087,1.13597 -0.087,2.0633 0,0.71868 0.087,1.9242 h 5.1554 q 5.7015,0 5.7015,7.85908 0,7.74317 -6.0292,7.74317 h -4.8713 q -0.1311,0.8114 -0.1311,2.08648 z"
         style="font-style:normal;font-variant:normal;font-weight:normal;font-stretch:normal;font-size:medium;font-family:TipografBold;-inkscape-font-specification:TipografBold;writing-mode:lr-tb;opacity:1;fill:#231f20;fill-opacity:1;fill-rule:nonzero;stroke:none;stroke-width:0.29157823"
         id="path5795"
         inkscape:connector-curvature="0" />
      <path
         d="m 1369.2666,679.80879 1.2452,11.52202 q 0.3057,2.82834 1.398,5.05391 1.1141,2.22559 2.7742,3.01382 h -5.1553 q -0.066,1.04323 -0.066,2.04011 0,1.02006 0.066,1.97057 h 12.3204 q 5.0461,0 7.5801,-3.33838 2.2937,-3.06017 2.2937,-8.5082 0,-5.47122 -2.25,-8.6473 -2.4903,-3.47747 -7.1432,-3.47747 -2.9708,0 -4.2379,0.51002 0.044,1.46054 0.568,3.80204 0.6335,-0.2782 2.0752,-0.2782 3.1457,0 4.3034,2.29513 0.8738,1.76191 0.8738,5.70305 0,7.97499 -4.7621,7.97499 -2.4466,0 -3.5826,-2.13285 -1.1141,-2.13284 -1.7475,-7.95181 l -0.9611,-9.55145 z"
         style="font-style:normal;font-variant:normal;font-weight:normal;font-stretch:normal;font-size:medium;font-family:TipografBold;-inkscape-font-specification:TipografBold;writing-mode:lr-tb;opacity:1;fill:#231f20;fill-opacity:1;fill-rule:nonzero;stroke:none;stroke-width:0.29157823"
         id="path5797"
         inkscape:connector-curvature="0" />
    </g>
  </g>
</svg>
